<?xml version="1.0" encoding="iso-8859-1"?>
<!-- Generator: Adobe Illustrator 19.0.0, SVG Export Plug-In . SVG Version: 6.00 Build 0)  -->
<svg version="1.1" id="Capa_1" xmlns="http://www.w3.org/2000/svg" xmlns:xlink="http://www.w3.org/1999/xlink" x="0px" y="0px"
	 viewBox="0 0 512 512" style="enable-background:new 0 0 512 512;" xml:space="preserve">
<path style="fill:#F9DC6A;" d="M507.11,391.729v103.77H318.87v-96.92H39.15v-62.28h412.52
	C482.29,336.299,507.11,361.119,507.11,391.729z"/>
<g>
	<path style="fill:#E5AC51;" d="M451.672,336.294h-23.731c30.617,0,55.437,24.82,55.437,55.437v103.766h23.731V391.731
		C507.109,361.114,482.289,336.294,451.672,336.294z"/>
	<path style="fill:#E5AC51;" d="M271.746,398.578v-6.847c0-30.616-24.818-55.435-55.434-55.437H101.707
		c-30.616,0.001-55.434,24.821-55.434,55.437v6.847H271.746z"/>
</g>
<path style="fill:#F2A077;" d="M360.971,280.593v67.326c0,18.447,14.954,33.401,33.401,33.401l0,0
	c18.447,0,33.401-14.954,33.401-33.401v-67.326H360.971z"/>
<path style="fill:#BE6351;" d="M291.77,308.729h205.204c8.298,0,15.026-6.727,15.026-15.026V134.129
	c0-64.964-52.664-117.628-117.628-117.628l0,0c-64.964,0-117.628,52.664-117.628,117.628v159.575
	C276.744,302.002,283.472,308.729,291.77,308.729z"/>
<path style="fill:#AA473A;" d="M394.372,16.501L394.372,16.501c-4.709,0-9.35,0.285-13.915,0.823
	c58.405,6.884,103.713,56.549,103.713,116.805v159.575c0,8.298-6.727,15.026-15.026,15.026h27.829
	c8.299,0,15.026-6.727,15.026-15.026V134.129C512,69.165,459.336,16.501,394.372,16.501z"/>
<path style="fill:#FFCCAA;" d="M511.079,200.202v9.834c0,11.481-9.297,20.79-20.778,20.79h-7.052
	c-1.22,23.486-11.542,44.581-27.501,59.796c-15.971,15.214-37.578,24.548-61.382,24.548c-47.583,0-86.442-37.346-88.87-84.344
	h-7.052c-11.481,0-20.79-9.309-20.79-20.79v-9.834c0-11.481,9.309-20.79,20.79-20.79h6.918v-27.366h38.603
	c28.086,0,54.916-11.627,74.12-32.125l9.614-10.261c4.026-4.295,11.225-1.452,11.225,4.441v2.648
	c0,19.497,15.812,35.297,35.297,35.297h9.151v27.366h6.93C501.782,179.412,511.079,188.722,511.079,200.202z"/>
<path style="fill:#F2A077;" d="M490.302,179.412h-6.924h-0.006v-12.319v-15.048h-9.151c-6.604,0-12.786-1.816-18.073-4.974v32.346
	l-0.129,51.411c-1.221,23.488-11.535,44.583-27.505,59.797c-12.861,12.253-29.384,20.683-47.756,23.503
	c2.713,0.416,5.465,0.714,8.251,0.882c1.772,0.105,3.559,0.159,5.358,0.159c19.907,0,38.278-6.528,53.101-17.564
	c2.9-2.159,5.663-4.491,8.276-6.981c1.189-1.133,2.346-2.298,3.47-3.494c10.977-11.681,18.84-26.333,22.256-42.614
	c0.566-2.7,0.995-5.45,1.311-8.233c0.038-0.326,0.074-0.653,0.109-0.98c0.052-0.51,0.105-1.019,0.148-1.531
	c0.085-0.977,0.16-1.957,0.211-2.944l0,0v-0.001l0.128-0.001h6.924c11.481,0,20.778-9.309,20.778-20.79v-9.834
	C511.079,188.722,501.782,179.412,490.302,179.412z"/>
<g>
	<path style="fill:#475D6D;" d="M394.372,263.403c-11.619,0-22.555-4.526-30.793-12.746c-4.165-4.165-7.38-9.015-9.563-14.424
		c-1.55-3.841,0.308-8.211,4.148-9.762c3.845-1.551,8.212,0.309,9.762,4.148c1.424,3.528,3.527,6.699,6.253,9.424
		c5.4,5.388,12.573,8.358,20.192,8.358c11.684,0,22.066-6.985,26.451-17.795c1.557-3.837,5.93-5.688,9.77-4.13
		c3.838,1.557,5.688,5.931,4.131,9.769C428.031,252.744,412.192,263.403,394.372,263.403z"/>
	<path style="fill:#475D6D;" d="M349.816,192.681c-4.143,0-7.5-3.358-7.5-7.5v-4.3c0-4.142,3.357-7.5,7.5-7.5s7.5,3.358,7.5,7.5v4.3
		C357.316,189.323,353.959,192.681,349.816,192.681z"/>
	<path style="fill:#475D6D;" d="M438.928,192.681c-4.143,0-7.5-3.358-7.5-7.5v-4.3c0-4.142,3.357-7.5,7.5-7.5s7.5,3.358,7.5,7.5v4.3
		C446.428,189.323,443.07,192.681,438.928,192.681z"/>
</g>
<path style="fill:#2BB4F3;" d="M241.24,391.729v103.77H15.77v-103.77c0-30.61,24.82-55.43,55.44-55.43h114.6
	C216.42,336.299,241.24,361.119,241.24,391.729z"/>
<path style="fill:#1687C4;" d="M185.807,336.294h-23.731c30.617,0,55.437,24.82,55.437,55.437v103.766h23.731V391.731
	C241.244,361.114,216.424,336.294,185.807,336.294z"/>
<path style="fill:#F2A077;" d="M95.106,280.593v67.326c0,18.447,14.954,33.401,33.401,33.401l0,0
	c18.447,0,33.401-14.954,33.401-33.401v-67.326H95.106z"/>
<path style="fill:#FFCCAA;" d="M38.204,407.581H19.325C8.652,407.581,0,398.929,0,388.256v-42.177
	c0-10.673,8.652-19.325,19.325-19.325h18.879c7.841,0,14.197,6.356,14.197,14.197v52.432
	C52.401,401.224,46.045,407.581,38.204,407.581z"/>
<g>
	<path style="fill:#1687C4;" d="M211.51,435.799v59.7h-15v-59.7c0-4.14,3.36-7.5,7.5-7.5S211.51,431.659,211.51,435.799z"/>
	<path style="fill:#1687C4;" d="M60.51,435.799v59.7h-15v-59.7c0-4.14,3.36-7.5,7.5-7.5S60.51,431.659,60.51,435.799z"/>
</g>
<path style="fill:#E5AC51;" d="M477.37,435.799v59.7h-15v-59.7c0-4.14,3.36-7.5,7.5-7.5S477.37,431.659,477.37,435.799z"/>
<path style="fill:#475D6D;" d="M18.438,288.151h220.139c4.174,0,7.558-3.384,7.558-7.558V134.129
	c0-64.964-52.664-117.628-117.628-117.628l0,0c-64.964,0-117.628,52.664-117.628,117.628v146.464
	C10.88,284.767,14.264,288.151,18.438,288.151z"/>
<path style="fill:#2C3F4F;" d="M128.508,16.501L128.508,16.501c-4.845,0-9.62,0.299-14.311,0.868
	c58.213,7.062,103.316,56.64,103.316,116.759v146.464c0,4.174-3.384,7.558-7.558,7.558h28.623c4.174,0,7.558-3.384,7.558-7.558
	V134.129C246.135,69.165,193.472,16.501,128.508,16.501z"/>
<path style="fill:#FFCCAA;" d="M224.424,179.412h-6.918v-27.366h-94.893c-7.177,0-13.53-4.643-15.708-11.482l-7.969-25.015
	c-1.189-3.733-6.471-3.733-7.66,0l-7.969,25.015c-2.178,6.839-8.531,11.482-15.708,11.482H39.498v27.366H32.58
	c-11.482,0-20.79,9.308-20.79,20.79v9.834c0,11.482,9.308,20.79,20.79,20.79h7.052c2.428,46.997,41.287,84.344,88.87,84.344
	c23.804,0,45.411-9.333,61.382-24.548c15.959-15.214,26.28-36.309,27.501-59.796h7.052c11.475,0,20.778-9.302,20.778-20.778v-9.846
	C245.215,188.72,235.906,179.412,224.424,179.412z"/>
<g>
	<path style="fill:#F2A077;" d="M190.155,230.431c0,0.004,0,0.013,0,0.025c0-0.009,0-0.014,0-0.018
		C190.155,230.436,190.155,230.433,190.155,230.431z"/>
	<path style="fill:#F2A077;" d="M190.154,230.781c0-0.026,0-0.053,0-0.076C190.155,230.734,190.155,230.76,190.154,230.781z"/>
	<path style="fill:#F2A077;" d="M224.424,179.412h-6.912h-0.006v-3.778v-23.588h-27.224c-0.103,63.191-0.125,76.178-0.128,78.385
		c0-0.004,0-0.001,0,0.007c0,0.057,0,0.107,0,0.15c0-0.054,0-0.102,0-0.131c0,0.037,0,0.116,0,0.25c0-0.002,0-0.004,0-0.006
		c0,0.04,0,0.073,0,0.095c0-0.004,0-0.009,0-0.013c0,0.015,0,0.027,0,0.042c0,0.002,0,0.003,0,0.005l0,0l0,0
		c-2.202,42.359-33.979,76.958-75.251,83.299c48.211,7.2,90.091-24.235,100.257-67.729h0.005c0.022-0.093,0.038-0.187,0.059-0.28
		c0.525-2.282,0.964-4.596,1.311-6.94c0.039-0.26,0.079-0.52,0.115-0.781c0.147-1.059,0.277-2.124,0.387-3.194
		c0.034-0.33,0.063-0.662,0.093-0.993c0.1-1.091,0.187-2.186,0.247-3.288c0.002-0.032,0.005-0.063,0.007-0.094v-0.001v-0.001h0.128
		h6.924c11.475,0,20.778-9.302,20.778-20.778v-9.846C245.215,188.72,235.906,179.412,224.424,179.412z"/>
</g>
<g>
	<path style="fill:#475D6D;" d="M128.507,263.403c-11.618,0-22.554-4.526-30.793-12.745c-4.165-4.166-7.38-9.017-9.563-14.424
		c-1.55-3.841,0.307-8.211,4.148-9.762c3.839-1.55,8.211,0.307,9.762,4.148c1.424,3.528,3.527,6.699,6.253,9.425
		c5.4,5.387,12.574,8.358,20.193,8.358c11.684,0,22.066-6.985,26.451-17.795c1.557-3.839,5.931-5.688,9.769-4.131
		s5.688,5.931,4.131,9.769C162.167,252.744,146.328,263.403,128.507,263.403z"/>
	<path style="fill:#475D6D;" d="M83.952,192.681c-4.142,0-7.5-3.358-7.5-7.5v-4.3c0-4.142,3.358-7.5,7.5-7.5s7.5,3.358,7.5,7.5v4.3
		C91.452,189.323,88.094,192.681,83.952,192.681z"/>
	<path style="fill:#475D6D;" d="M173.063,192.681c-4.142,0-7.5-3.358-7.5-7.5v-4.3c0-4.142,3.358-7.5,7.5-7.5s7.5,3.358,7.5,7.5v4.3
		C180.563,189.323,177.205,192.681,173.063,192.681z"/>
</g>
<g>
</g>
<g>
</g>
<g>
</g>
<g>
</g>
<g>
</g>
<g>
</g>
<g>
</g>
<g>
</g>
<g>
</g>
<g>
</g>
<g>
</g>
<g>
</g>
<g>
</g>
<g>
</g>
<g>
</g>
</svg>
