<?xml version="1.0" encoding="iso-8859-1"?>
<!-- Generator: Adobe Illustrator 18.1.1, SVG Export Plug-In . SVG Version: 6.00 Build 0)  -->
<svg version="1.1" id="Capa_1" xmlns="http://www.w3.org/2000/svg" xmlns:xlink="http://www.w3.org/1999/xlink" x="0px" y="0px"
	 viewBox="0 0 15.555 15.555" style="enable-background:new 0 0 15.555 15.555;" xml:space="preserve">
<g>
	<g>
		<path style="fill:#010002;" d="M9.36,7.419c1.261-1.574,1.366-3.86,0.117-5.56c-1.49-2.027-4.353-2.465-6.38-0.974
			C1.069,2.377,0.632,5.239,2.123,7.267c1.25,1.7,3.463,2.28,5.341,1.546l0.012,0.017C7.477,8.831,7.48,8.835,7.487,8.844
			l4.933,6.71l1.897-1.394L9.36,7.419z M2.86,6.724c-1.191-1.62-0.843-3.91,0.779-5.101c1.62-1.191,3.909-0.842,5.1,0.778
			C9.931,4.023,9.582,6.31,7.961,7.503C6.341,8.693,4.053,8.345,2.86,6.724z M8.908,8.829C8.232,9.326,7.72,9.017,7.487,8.804
			c0.354-0.141,0.696-0.328,1.018-0.563c0.319-0.235,0.599-0.505,0.839-0.799C9.471,7.736,9.598,8.321,8.908,8.829z M7.975,3.058
			c-0.204-0.266-0.526-0.421-0.987-0.47C6.952,2.583,6.912,2.582,6.873,2.582c-0.4,0-0.852,0.193-1.115,0.558
			C5.494,2.775,5.042,2.582,4.643,2.582c-0.04,0-0.078,0.002-0.116,0.006C4.067,2.637,3.744,2.791,3.54,3.057
			C3.338,3.322,3.273,3.684,3.347,4.133C3.525,5.224,5.544,6.974,5.63,7.048c0.04,0.033,0.088,0.05,0.136,0.05
			c0.049,0,0.097-0.017,0.137-0.05C5.989,6.973,7.99,5.223,8.168,4.133C8.242,3.684,8.177,3.322,7.975,3.058z M7.88,4.302
			c0,0-0.078-1.17-1.118-1.327C6.762,2.975,8.011,2.793,7.88,4.302z"/>
	</g>
</g>
<g>
</g>
<g>
</g>
<g>
</g>
<g>
</g>
<g>
</g>
<g>
</g>
<g>
</g>
<g>
</g>
<g>
</g>
<g>
</g>
<g>
</g>
<g>
</g>
<g>
</g>
<g>
</g>
<g>
</g>
</svg>
